<?xml version="1.0" encoding="UTF-8" standalone="no"?>
<svg
   xmlns:dc="http://purl.org/dc/elements/1.1/"
   xmlns:cc="http://creativecommons.org/ns#"
   xmlns:rdf="http://www.w3.org/1999/02/22-rdf-syntax-ns#"
   xmlns:svg="http://www.w3.org/2000/svg"
   xmlns="http://www.w3.org/2000/svg"
   xmlns:sodipodi="http://sodipodi.sourceforge.net/DTD/sodipodi-0.dtd"
   xmlns:inkscape="http://www.inkscape.org/namespaces/inkscape"
   width="448mm"
   height="387.979mm"
   viewBox="0 0 448 387.979"
   version="1.1"
   id="svg8"
   inkscape:version="1.0.2 (e86c8708, 2021-01-15)"
   sodipodi:docname="base6.svg"
   inkscape:export-filename="/Users/keaton/Desktop/triangle_blue.png"
   inkscape:export-xdpi="25.4"
   inkscape:export-ydpi="25.4">
  <defs
     id="defs2" />
  <sodipodi:namedview
     id="base"
     pagecolor="#ffffff"
     bordercolor="#666666"
     borderopacity="1.0"
     inkscape:pageopacity="0.0"
     inkscape:pageshadow="2"
     inkscape:zoom="0.18222842"
     inkscape:cx="759.76928"
     inkscape:cy="-72.121383"
     inkscape:document-units="mm"
     inkscape:current-layer="layer1"
     inkscape:document-rotation="0"
     showgrid="false"
     inkscape:window-width="1440"
     inkscape:window-height="855"
     inkscape:window-x="0"
     inkscape:window-y="23"
     inkscape:window-maximized="1" />
  <metadata
     id="metadata5">
    <rdf:RDF>
      <cc:Work
         rdf:about="">
        <dc:format>image/svg+xml</dc:format>
        <dc:type
           rdf:resource="http://purl.org/dc/dcmitype/StillImage" />
        <dc:title></dc:title>
      </cc:Work>
    </rdf:RDF>
  </metadata>
  <g
     inkscape:label="Layer 1"
     inkscape:groupmode="layer"
     id="layer1">
    <path
       id="path859"
       style="fill:#000000;stroke:#000000;stroke-width:0.836791"
       inkscape:transform-center-x="-0.00019049429"
       inkscape:transform-center-y="-3.6212791e-05"
       d="M 423.54688,0.41796875 358.55469,112.98828 288.58789,234.17578 522.66602,546.01367 135.57031,499.21289 0.484375,733.18945 135.44531,966.94727 522.54297,920.14844 288.46484,1231.9824 l 50.5293,87.5196 84.55859,146.457 h 269.91993 l 153.01953,-358.6367 153.01758,358.6347 h 221.78713 48.3867 l 134.9551,-233.7558 -234.0762,-311.83792 387.0957,46.79883 132.8438,-230.08984 2.2441,-3.88477 L 1557.7852,499.43164 1170.6875,546.23047 1404.7656,234.39453 1293.873,42.322266 1269.6797,0.41796875 H 999.75977 L 846.74023,359.05469 693.7207,0.41796875 H 570.71289 Z M 1418.4727,258.13477 c -2.827,3.76598 -1.6441,5.42468 3.0312,5.25 z"
       transform="scale(0.26458333)" />
  </g>
</svg>
